<svg xmlns="http://www.w3.org/2000/svg" width="804.675" height="588.687" viewBox="0 0 804.675 588.687" xmlns:xlink="http://www.w3.org/1999/xlink" role="img" artist="Katerina Limpitsouni" source="https://undraw.co/">
  <g id="Group_240" data-name="Group 240" transform="translate(-452.643 -216.425)">
    <path id="Path_3946-98" data-name="Path 3946" d="M974.065,605.8s-22.126-4.429-28.029-10.331-32.457-16.2-35.4-8.849-39.833,32.457-14.751,36.886,59.012,5.9,66.388,2.947S974.065,605.8,974.065,605.8Z" transform="translate(275.571 172.342)" fill="#f2f2f2"/>
    <path id="Path_3956-99" data-name="Path 3956" d="M0,11.033s20.426-.628,26.581-5.013S57.966-3.57,59.527,3.4s30.7,34.968,7.637,35.151S13.583,34.964,7.445,31.25,0,11.033,0,11.033Z" transform="translate(481.707 767.024) rotate(-9)" fill="#f2f2f2"/>
    <path id="Path_3959-100" data-name="Path 3959" d="M738.806,748.616l-5.458-85.35-.113-.183L727.725,665l-25.361,73.938-40.321-28.6,64.243-46.563.061-.183.366-.131,4.141-3.008L663.517,622.7l-16.5,18.133,2.615,17,77.416,1.378v1.744l-78.881-1.412L645.2,640.268l22.571-24.8,33.756-39.379.6,1.63,7.149-7.846,26.625,4.769v-1.055l1.744.052v1.316l39.545,7.079-36.9,73.8-5.379,3.9v.924L820.18,630.94l-10.122,79.517L737.7,664.365l-2.546-1.43,42.666,68.777Zm-3.487-82.246,5.1,79.665,34.916-15.152Zm-70.241,43.974,36.433,25.832,23.835-69.518Zm71.767-48.525,1.822,1.02,70.049,44.636,9.415-73.99Zm-6.19-6.277,2.188,3.531.384-.279,2.615-82.412-25.927-4.655-7.114,7.846ZM664.929,621.5l65.246,36.616-1.133-1.857L701.51,581.047l-32.431,35.639Zm72.682-44.8L735,657.5l3.941-2.86L774.6,583.313Z" transform="translate(289.175 33.155)" fill="#090814"/>
    <path id="Path_3960-101" data-name="Path 3960" d="M312.614,748.213l-5.466-85.384-.113-.183-5.51,1.918-25.352,73.973L235.852,709.95l64.226-46.563.061-.183.366-.131,4.141-3.008-67.338-37.758-16.495,18.133,2.615,17,77.434,1.412V660.6l-78.881-1.412L219,639.883l22.58-24.812,33.782-39.406.6,1.63,7.149-7.846,26.555,4.76v-1.055l1.744.052v1.316l39.545,7.079-36.869,73.763-5.379,3.9v.924l85.262-29.711-10.122,79.517L311.49,663.9l-2.546-1.43,42.666,68.768Zm-3.487-82.246,5.1,79.665,34.916-15.152Zm-70.25,43.965,36.433,25.832,23.835-69.518Zm71.767-48.525,1.822,1.02,70.049,44.636,9.415-73.99Zm-6.19-6.277,2.188,3.531.384-.279,2.615-82.412-25.927-4.638-7.114,7.846ZM238.7,621.078l65.246,36.616-1.133-1.857-27.532-75.211-32.422,35.631Zm72.708-44.8L308.8,657.11l3.941-2.859L348.4,582.919Z" transform="translate(343.813 33.209)" fill="#090814"/>
    <rect id="Rectangle_841" data-name="Rectangle 841" width="52.308" height="16.564" transform="translate(734.073 602.849) rotate(44.62)" fill="#d6d6e3"/>
    <path id="Path_3961-102" data-name="Path 3961" d="M425.63,541.942s21.612-11.4,29.964-18.744a113.687,113.687,0,0,1,16.155-11.8l27.113-16.5,56.667-4.359,2.615,9.59s4.359,13.949-39.231,26.154-65.385,31.385-65.385,31.385S425.63,567.224,425.63,541.942Z" transform="translate(317.323 43.325)" fill="#ffb9b9"/>
    <path id="Path_3962-103" data-name="Path 3962" d="M455.838,563.055c-1.543,1.177-2.31,1.857-2.31,1.857s-27.9,9.59-27.9-15.693c0,0,1.351-.715,3.487-1.909a24.123,24.123,0,0,0,20.557,11.5h2.955Z" transform="translate(317.323 36.048)" opacity="0.1"/>
    <path id="Path_3963-104" data-name="Path 3963" d="M557.325,504.937c-2.424,5.135-10.784,13.574-38.412,21.307-35.4,9.912-56.432,24.411-63.075,29.528-1.543,1.177-2.31,1.857-2.31,1.857s-27.9,9.59-27.9-15.693c0,0,1.351-.715,3.487-1.909,6.477-3.548,20.191-11.333,26.451-16.869a113.344,113.344,0,0,1,16.155-11.8l27.113-16.5,10.1-.776L555.5,490.5l2.615,9.59S558.728,501.964,557.325,504.937Z" transform="translate(317.323 43.33)" opacity="0.05"/>
    <path id="Path_3964-105" data-name="Path 3964" d="M422.733,543l-23.1,15.257,67.652,56.667s9.939-6.1,4.708-13.077c0,0-17.436-14.821-18.308-35.744l-5.231-6.974H445.5A24.124,24.124,0,0,1,422.732,543Z" transform="translate(320.656 36.601)" fill="#090814"/>
    <path id="Path_3965-106" data-name="Path 3965" d="M569.578,504.937c-13.949-6.739-48-7.463-48-7.463l-.366-3.391,46.572-3.583,2.615,9.59S570.981,501.964,569.578,504.937Z" transform="translate(305.07 43.33)" opacity="0.1"/>
    <path id="Path_3966-107" data-name="Path 3966" d="M520.092,482.4s40.975.872,51.436,9.59L566.3,386.5H509.63Z" transform="translate(306.555 56.663)" fill="#f2f2f2"/>
    <path id="Path_3967-108" data-name="Path 3967" d="M520.092,481.9s40.975.872,51.436,9.59L566.3,386H509.63Z" transform="translate(306.555 56.727)" opacity="0.031"/>
    <path id="Path_3968-109" data-name="Path 3968" d="M732.381,556.12a102.43,102.43,0,0,0-27.383,3.7,100.757,100.757,0,0,0-13.478,4.769,102.611,102.611,0,1,0,40.853-8.465Zm-.349,179.67a77.468,77.468,0,0,1-32.17-147.928,76.517,76.517,0,0,1,12.693-4.507A77.46,77.46,0,1,1,732.041,735.79Z" transform="translate(291.162 34.918)" fill="#090814"/>
    <path id="Path_3969-110" data-name="Path 3969" d="M559.047,422.4s102.568-3.487,104.66,9.773-102.568,7.672-102.568,7.672S552.77,431.466,559.047,422.4Z" transform="translate(300.519 52.114)" fill="#090814"/>
    <circle id="Ellipse_680" data-name="Ellipse 680" transform="translate(791.19 757.107)" fill="none" stroke="#c1272d" stroke-miterlimit="10" stroke-width="1"/>
    <rect id="Rectangle_843" data-name="Rectangle 843" width="18.142" height="157.692" transform="translate(758.393 527.545)" fill="#6c63ff"/>
    <path id="Path_3971-111" data-name="Path 3971" d="M461.482,483.28v12.144c-6.033.785-12.205,1.282-18.142,1.473V483.28Z" transform="translate(315.053 44.256)" opacity="0.1"/>
    <path id="Path_3972-112" data-name="Path 3972" d="M454.764,467.717a67.761,67.761,0,0,1-7.585-1.02c-9.834-1.883-34.628-5.832-41.3.872-8.369,8.369-5.58,23.024,16.747,25.117s60.7-3.487,68.384-11.865C491.014,480.785,477.126,469.434,454.764,467.717Z" transform="translate(320.411 46.751)" fill="#090814"/>
    <path id="Path_3973-113" data-name="Path 3973" d="M387.4,466.679,577.889,407.37l6.277,14.655L388.795,489.006Z" transform="translate(384.253 104.125)" fill="#6c63ff"/>
    <path id="Path_3974-114" data-name="Path 3974" d="M452.23,562.745,589.687,427.38l7.672,11.159L466.179,575.3Z" transform="translate(375.942 101.559)" fill="#6c63ff"/>
    <path id="Path_3975-115" data-name="Path 3975" d="M721.638,583.9a76.525,76.525,0,0,0-12.693,4.507l-8.334-23.286a100.738,100.738,0,0,1,13.478-4.769Z" transform="translate(282.072 34.376)" opacity="0.1"/>
    <path id="Path_3976-116" data-name="Path 3976" d="M668.428,578.5l-9.764,5.58L590.541,393.743l-3.051-8.518,16.05-9.075,4.019,12.537Z" transform="translate(358.603 108.127)" fill="#6c63ff"/>
    <path id="Path_3977-117" data-name="Path 3977" d="M607.559,388.687l-17.018,5.056-3.051-8.518,16.05-9.075Z" transform="translate(358.603 108.127)" opacity="0.1"/>
    <path id="Path_3978-118" data-name="Path 3978" d="M562.444,460.057l95.593-32.8s16.747,2.092,10.462,16.05l-96.282,28.6S557.571,473.309,562.444,460.057Z" transform="translate(299.911 51.438)" fill="#090814"/>
    <path id="Path_3979-119" data-name="Path 3979" d="M406.274,635.7A102.193,102.193,0,0,0,385.6,593.347a102.772,102.772,0,1,0,23.173,64.941,102.5,102.5,0,0,0-2.5-22.588ZM305.851,735.39a77.373,77.373,0,1,1,76.2-63.476A77.373,77.373,0,0,1,305.851,735.39Z" transform="translate(345.781 34.969)" fill="#090814"/>
    <path id="Path_3980-120" data-name="Path 3980" d="M434.908,670.051a103.807,103.807,0,0,1-1.235,15.954c-8.372-.584-17.02-1.456-25.494-2.328a78.1,78.1,0,0,0-.689-31.28c8.256-1.744,16.686-3.409,24.916-4.917a102.5,102.5,0,0,1,2.5,22.571Z" transform="translate(319.649 23.206)" opacity="0.1"/>
    <path id="Path_3981-121" data-name="Path 3981" d="M461.482,642.89v18.543H443.34V645.741C449.617,644.651,455.72,643.683,461.482,642.89Z" transform="translate(315.053 23.795)" opacity="0.1"/>
    <path id="Path_3982-122" data-name="Path 3982" d="M329.284,669.022S475.816,630.663,487.673,645.3s24.419,34.183-12.528,41.158S326.52,674.593,326.52,674.593Z" transform="translate(330.029 23.912)" fill="#6c63ff"/>
    <path id="Path_3983-123" data-name="Path 3983" d="M407.986,597.013l-18.622,17.044A77.592,77.592,0,0,0,378.24,602.48l17.384-18.16a103.543,103.543,0,0,1,12.362,12.693Z" transform="translate(323.398 31.303)" opacity="0.1"/>
    <path id="Path_3984-124" data-name="Path 3984" d="M252.94,589.833,362.482,475.4l3.5,26.512L258.52,600.295Z" transform="translate(401.491 95.403)" fill="#6c63ff"/>
    <circle id="Ellipse_681" data-name="Ellipse 681" cx="11.168" cy="11.168" r="11.168" transform="translate(641.868 681.741)" opacity="0.1"/>
    <circle id="Ellipse_682" data-name="Ellipse 682" cx="11.168" cy="11.168" r="11.168" transform="translate(640.464 681.741)" fill="#090814"/>
    <circle id="Ellipse_683" data-name="Ellipse 683" cx="11.168" cy="11.168" r="11.168" transform="translate(1011.33 680.694)" opacity="0.1"/>
    <circle id="Ellipse_684" data-name="Ellipse 684" cx="11.168" cy="11.168" r="11.168" transform="translate(1012.027 682.089)" fill="#090814"/>
    <circle id="Ellipse_685" data-name="Ellipse 685" cx="22.327" cy="22.327" r="22.327" transform="translate(802.349 659.422)" opacity="0.1"/>
    <circle id="Ellipse_686" data-name="Ellipse 686" cx="22.327" cy="22.327" r="22.327" transform="translate(803.753 659.422)" fill="#d6d6e3"/>
    <rect id="Rectangle_844" data-name="Rectangle 844" width="11.865" height="41.446" rx="5.933" transform="matrix(0.801, -0.599, 0.599, 0.801, 815.364, 683.632)" fill="#6c63ff"/>
    <path id="Path_3985-125" data-name="Path 3985" d="M631.6,303.346l-2.075,26.25a58.948,58.948,0,0,0,.131,9.982c.27,2.938,0,8.082-2.877,15.928a91.445,91.445,0,0,0-5.641,31.3v29.877l-20.052-3.487s.872-41.847-2.615-48.821,2.615-68.872,2.615-68.872Z" transform="translate(295.304 68.329)" fill="#ffb9b9"/>
    <path id="Path_3986-126" data-name="Path 3986" d="M630.573,316.354,629.527,329.6a58.884,58.884,0,0,0,.14,9.973c.27,2.938,0,8.082-2.877,15.937a91.443,91.443,0,0,0-5.641,31.3v29.877L601.1,413.194s.872-41.847-2.615-48.821c-2.467-4.943-.131-37.435,1.447-55.979.654-7.628,1.168-12.894,1.168-12.894l30.513,7.846Z" transform="translate(295.302 68.329)" opacity="0.05"/>
    <path id="Path_3987-127" data-name="Path 3987" d="M516.265,527.173l-7.541,42.893a97.823,97.823,0,0,1-4.359,16.826c-4.42,12.083-1.6,29.022.549,38.263.95,4.08,1.744,6.661,1.744,6.661l-22.667,12.205-6.974-5.231V635.3l-.872-77.59c-5.231-12.205-3.487-30.513,0-37.488a29.556,29.556,0,0,0,2.075-7.166,194.268,194.268,0,0,0,2.284-22.475s13.949-23.539,30.513-7.846c6.1,5.78,8.422,13.339,8.91,20.575C520.781,515.7,516.265,527.173,516.265,527.173Z" transform="translate(311.271 45.017)" fill="#ffb9b9"/>
    <path id="Path_3988-128" data-name="Path 3988" d="M520.717,503.281c-12.092,7.184-33.129,9.215-41.707,9.747a194.273,194.273,0,0,0,2.284-22.475s13.949-23.539,30.513-7.846C517.91,488.487,520.229,496.045,520.717,503.281Z" transform="translate(310.48 45.021)" opacity="0.1"/>
    <path id="Path_3989-129" data-name="Path 3989" d="M543.295,463.4a159.536,159.536,0,0,0-26.154,17.436c-13.949,11.333-48.821,12.205-48.821,12.205V479.963c.872-15.692-13.949-33.129-34-81.95-12.807-31.176-9.259-48.821-5.022-57.539a20.961,20.961,0,0,1,5.022-6.974l108.975,20.923,3.9,11.682,8.308,24.934s-30.513,1.744-35.744,4.359-1.744,26.154-1.744,26.154C512.781,445.963,543.295,463.4,543.295,463.4Z" transform="translate(317.352 63.457)" fill="#f2f2f2"/>
    <path id="Path_3990-130" data-name="Path 3990" d="M631.971,303.346l-1.029,13.007c-15.169,4.359-26-9.52-26-9.52a39.936,39.936,0,0,0-4.655,1.561c.654-7.628,1.168-12.894,1.168-12.894Z" transform="translate(294.933 68.329)" opacity="0.1"/>
    <path id="Path_3992-131" data-name="Path 3992" d="M621.717,254.553c-2.275,17.741-3.034,40.1-3.034,40.1-20.052,15.692-35.744-4.359-35.744-4.359C564,295.38,555.1,311.953,550.909,326.416a96.562,96.562,0,0,0-3.714,24.036s-5.3,4.359-15.065,5.231c-9.232.776-22.466-1.63-38.987-13.949-34-25.282-64.513-18.308-64.513-18.308s6.1-34.872,20.052-45.334,24.41-23.539,41.847-63.642,53.18-30.513,53.18-30.513,1.744-7.846,34,0a52.543,52.543,0,0,1,21.246,11.255A66.456,66.456,0,0,1,621.717,254.553Z" transform="translate(316.939 83.078)" fill="#6c63ff"/>
    <path id="Path_3993-132" data-name="Path 3993" d="M606.162,205.513c-.044,1.16-.139,2.45-.3,3.888-1.744,15.692-3.487,13.949-22.667,17.436-11.926,2.171-18.125-7.794-21.106-15.64a49.373,49.373,0,0,1-2.432-8.77l41.846-6.974S606.519,194.048,606.162,205.513Z" transform="translate(300.141 81.161)" fill="#ffb9b9"/>
    <path id="Path_3994-133" data-name="Path 3994" d="M559.5,337.623a96.562,96.562,0,0,0-3.714,24.036s-5.3,4.359-15.065,5.231a8.126,8.126,0,0,1-.628-1.744c-1.744-7.846-14.821-21.8-14.821-21.8-8.718-7.846-10.462-21.8-10.462-21.8l-14.385-42.282-4.795-3.923s20.052-15.692,37.488-2.615,12.205,40.975,12.205,40.975l3.487,9.59C552.428,326.351,556.107,331.73,559.5,337.623Z" transform="translate(308.35 71.914)" opacity="0.05"/>
    <path id="Path_3995-134" data-name="Path 3995" d="M498.63,274.35l19.18,46.206s1.744,13.949,10.462,21.8c0,0,13.077,13.949,14.821,21.8s26.154,28.77,26.154,28.77,22.667,20.923,24.411,28.77c0,0,20.923,6.1,18.308,18.308,0,0,15.692-15.692,0-30.513s-36.616-45.334-36.616-45.334S563.143,331.889,551.81,322.3l-3.487-9.59s5.231-27.9-12.205-40.975S498.63,274.35,498.63,274.35Z" transform="translate(307.965 72.042)" fill="#ffb9b9"/>
    <path id="Path_3996-135" data-name="Path 3996" d="M507.271,653.527,484.6,665.732,477.63,660.5v-3.487a52.8,52.8,0,0,0,22.275-6.722c2.092-1.186,4.063-2.354,5.641-3.383C506.461,650.946,507.271,653.527,507.271,653.527Z" transform="translate(310.657 23.279)" opacity="0.1"/>
    <path id="Path_3997-136" data-name="Path 3997" d="M533.425,231.8l12.205,47.949s-37.488,6.1-45.334,0-22.667-7.846-22.667-7.846,15.692-45.334,24.411-50.565S533.425,231.8,533.425,231.8Z" transform="translate(310.657 77.972)" opacity="0.1"/>
    <path id="Path_3998-137" data-name="Path 3998" d="M533.425,229.8l12.205,47.949s-37.488,6.1-45.334,0-22.667-7.846-22.667-7.846,15.692-45.334,24.411-50.565S533.425,229.8,533.425,229.8Z" transform="translate(310.657 78.229)" fill="#6c63ff"/>
    <path id="Path_3999-138" data-name="Path 3999" d="M606.162,204.513a30.513,30.513,0,0,1-44.07,5.684,49.373,49.373,0,0,1-2.432-8.77l41.846-6.974S606.519,193.048,606.162,204.513Z" transform="translate(300.141 81.29)" opacity="0.1"/>
    <path id="Path_4000-139" data-name="Path 4000" d="M610.656,179.9a30.513,30.513,0,1,1-61.026,0v-1.517a30.523,30.523,0,1,1,61.026,1.517Z" transform="translate(301.427 87.158)" fill="#ffb9b9"/>
    <path id="Path_4003-140" data-name="Path 4003" d="M456.13,292s22.667,6.1,29.641,21.8,25.84,18.561,25.84,18.561" transform="translate(313.413 68.777)" opacity="0.05"/>
    <rect id="Rectangle_845" data-name="Rectangle 845" width="52.308" height="16.564" transform="translate(802.672 706.012)" fill="#d6d6e3"/>
    <path id="Path_4004-141" data-name="Path 4004" d="M498.331,651.812c4.682-2.615,8.788-5.231,9.145-6.312,0,0,11.813,12.467,22.336,16.338a52.651,52.651,0,0,1,10.1,5.022c4.167,2.615,10.113,5.693,15.509,5.693,0,0,12.205,10.462-11.333,12.205S465.63,680.4,465.63,680.4l3.487-21.8h0A52.98,52.98,0,0,0,498.331,651.812Z" transform="translate(312.195 23.46)" fill="#090814"/>
    <path id="Path_2204-142" data-name="Path 2204" d="M379.476,396.286c-2.571-3.465-6.265-5.928-9.091-9.187a62.637,62.637,0,0,0-4.581-5.416c-3.239-2.975-7.768-4.194-12.164-4.345a30.694,30.694,0,0,0-25.057,11.891l-6.892-4.041-2.723,7.167a4.177,4.177,0,0,0-6.366,5.227c-.547-1.689-3.052-2.048-4.433-.932a5.34,5.34,0,0,0-1.526,4.863,9.789,9.789,0,0,0,7.384,8.1c3,.668,6.487-.034,8.887,1.884,1.924,1.537,2.5,4.336,4.468,5.822,2.419,1.831,5.838.984,8.845,1.389a10.628,10.628,0,0,1,8.795,11.36,13.17,13.17,0,0,1,2.057-4.725,4.485,4.485,0,0,1,4.557-1.768c2.739.821,3.187,4.554,2.523,7.335-1.76,7.376-8.433,19.3-8.433,19.3,8.663,3.417,18.985.186,25.669-6.3s10.166-15.667,11.682-24.856C384.364,411.259,384.181,402.628,379.476,396.286Z" transform="translate(544.352 -160.901)" fill="#090814"/>
    <path id="Path_133-143" data-name="Path 133" d="M567.515,735.806a70.161,70.161,0,0,0,3.278,19.394c.044.146.093.289.141.435h12.231c-.013-.131-.026-.276-.039-.435-.815-9.375,3.843-65.754,9.465-75.512C592.1,680.479,566.567,706.017,567.515,735.806Z" transform="translate(285.737 44.475)" fill="#f2f2f2"/>
    <path id="Path_134-144" data-name="Path 134" d="M567.164,760.218c.1.146.209.291.318.435h9.176c-.07-.124-.15-.27-.244-.435-1.516-2.736-6-10.915-10.167-19.394-4.474-9.112-8.581-18.569-8.235-21.992C557.9,719.6,554.808,743.138,567.164,760.218Z" transform="translate(287.006 39.331)" fill="#f2f2f2"/>
    <path id="Path_3912-145" data-name="Path 3912" d="M942.3,768.546H139.372a.872.872,0,1,1,0-1.744H942.3a.872.872,0,0,1,0,1.744Z" transform="translate(314.143 31.463)" fill="#ccc"/>
  </g>
</svg>